<svg xmlns="http://www.w3.org/2000/svg" xmlns:xlink="http://www.w3.org/1999/xlink" width="43.995" height="30.301" viewBox="0 0 43.995 30.301">
  <defs>
    <clipPath id="clip-path">
      <path id="路径_2411" data-name="路径 2411" d="M120.214-206.678l-5.747,5.6a1.521,1.521,0,0,0,0,2.193,1.63,1.63,0,0,0,2.254,0l6.118-5.959v-1.61l-2.625,2.55v-2.776Zm8.762,1.817a1.592,1.592,0,0,0,1.912-1.159,1.555,1.555,0,0,0-1.192-1.864L124.76-209l-2.421,1.466,3.612.818c-.352.213-.874.53-1.405.849l4.43,1.006Z" transform="translate(-114 209)" fill="#f50a22"/>
    </clipPath>
    <clipPath id="clip-path-2">
      <path id="路径_2413" data-name="路径 2413" d="M13.447-260.549l-4.711,4.6a2.028,2.028,0,0,1-2.816,0l-.553-.541h0a1.924,1.924,0,0,1-.038-2.72l.038-.038,4.5-4.4A16.528,16.528,0,0,0,12.834-269a6.859,6.859,0,0,0-6.1,1.8l-4.755,4.647a6.526,6.526,0,0,0,0,9.37l.556.538a6.883,6.883,0,0,0,9.581,0l4.751-4.648a6.5,6.5,0,0,0,1.782-6.207,31.907,31.907,0,0,0-5.207,2.946Zm25.3-15.078L32.2-277.113a6.868,6.868,0,0,0-6.09,1.556,20.7,20.7,0,0,0,5.226,3.047l6.332,1.437a1.949,1.949,0,0,1,1.49,2.336l-.182.748a2,2,0,0,1-2.391,1.456l-6.439-1.462a12.821,12.821,0,0,0-5.967.459,6.7,6.7,0,0,0,4.78,4.069l6.546,1.49a6.78,6.78,0,0,0,8.133-4.949l.179-.748a6.621,6.621,0,0,0-5.069-7.952Zm-23.4-1.3-1.191,2.792,3.62,1.324Zm7.966-1.78-1.933,1.173,1.587,2.3Zm-4.61-2.163L16.728-281l2.768,5.927Z" transform="translate(0 281)" fill="#f50a22"/>
    </clipPath>
  </defs>
  <g id="组_5475" data-name="组 5475" transform="translate(0 281)">
    <g id="组_5473" data-name="组 5473" transform="translate(12.293 -273.236)" clip-path="url(#clip-path)">
      <path id="路径_2410" data-name="路径 2410" d="M109-214h18.008v11.646H109Z" transform="translate(-109.539 213.461)" fill="#f50a22"/>
    </g>
    <g id="组_5474" data-name="组 5474" transform="translate(0 -281)" clip-path="url(#clip-path-2)">
      <path id="路径_2412" data-name="路径 2412" d="M-5-286H40.074v31.379H-5Z" transform="translate(4.461 285.461)" fill="#f50a22"/>
    </g>
  </g>
</svg>
